<svg width="26" height="22" viewBox="0 0 26 22" fill="none" xmlns="http://www.w3.org/2000/svg">
<path d="M13 7.25V20M13 7.25C13 5.15 13 4.1 13.4087 3.2975C13.7679 2.59211 14.3411 2.01848 15.0463 1.65875C15.85 1.25 16.9 1.25 19 1.25H22.25C22.95 1.25 23.3 1.25 23.5675 1.38625C23.8025 1.50625 23.9925 1.6975 24.1138 1.9325C24.25 2.2 24.25 2.55 24.25 3.25V14.25C24.25 14.95 24.25 15.3 24.1125 15.5675C23.9931 15.8026 23.8023 15.9938 23.5675 16.1138C23.3013 16.25 22.9513 16.25 22.2525 16.25H18.7113C17.5375 16.25 16.9487 16.25 16.4162 16.4125C15.9451 16.5555 15.5067 16.7899 15.1263 17.1025C14.6963 17.4562 14.37 17.945 13.7187 18.9212L13 20M13 7.25C13 5.15 13 4.1 12.5913 3.2975C12.2317 2.59192 11.6581 2.01827 10.9525 1.65875C10.15 1.25 9.1 1.25 7 1.25H3.75C3.05 1.25 2.7 1.25 2.4325 1.38625C2.19731 1.50609 2.00609 1.69731 1.88625 1.9325C1.75 2.2 1.75 2.55 1.75 3.25V14.25C1.75 14.95 1.75 15.3 1.88625 15.5675C2.00609 15.8027 2.19731 15.9939 2.4325 16.1138C2.7 16.25 3.04875 16.25 3.7475 16.25H7.28875C8.4625 16.25 9.04875 16.25 9.5825 16.4125C10.0537 16.555 10.495 16.79 10.875 17.1025C11.3038 17.455 11.6275 17.94 12.2725 18.91L13 20" stroke="currentColor" stroke-width="2.5" stroke-linecap="round" stroke-linejoin="round"/>
</svg>
