<svg width="34" height="34" viewBox="0 0 34 34" fill="none" xmlns="http://www.w3.org/2000/svg">
<path d="M17 8.66667V17H25.3333M17 32C15.0302 32 13.0796 31.612 11.2597 30.8582C9.43986 30.1044 7.78628 28.9995 6.3934 27.6066C5.00052 26.2137 3.89563 24.5601 3.14181 22.7403C2.38799 20.9204 2 18.9698 2 17C2 15.0302 2.38799 13.0796 3.14181 11.2597C3.89563 9.43986 5.00052 7.78628 6.3934 6.3934C7.78628 5.00052 9.43986 3.89563 11.2597 3.14181C13.0796 2.38799 15.0302 2 17 2C20.9782 2 24.7936 3.58035 27.6066 6.3934C30.4196 9.20644 32 13.0218 32 17C32 20.9782 30.4196 24.7936 27.6066 27.6066C24.7936 30.4196 20.9782 32 17 32Z" stroke="#000324" stroke-width="3.33333" stroke-linecap="round" stroke-linejoin="round"/>
</svg>
