<svg width="33" height="36" viewBox="0 0 33 36" fill="none" xmlns="http://www.w3.org/2000/svg">
<path d="M15.7806 20.6663V13.9997M30.6157 8.99967L27.319 5.66634M12.4839 2.33301H19.0773M15.7806 33.9997C12.2832 33.9997 8.92909 32.5949 6.45608 30.0944C3.98307 27.5939 2.59375 24.2026 2.59375 20.6663C2.59375 17.1301 3.98307 13.7387 6.45608 11.2383C8.92909 8.73777 12.2832 7.33301 15.7806 7.33301C19.2779 7.33301 22.632 8.73777 25.105 11.2383C27.5781 13.7387 28.9674 17.1301 28.9674 20.6663C28.9674 24.2026 27.5781 27.5939 25.105 30.0944C22.632 32.5949 19.2779 33.9997 15.7806 33.9997Z" stroke="#000324" stroke-width="3.33333" stroke-linecap="round" stroke-linejoin="round"/>
</svg>
