<svg width="37" height="34" viewBox="0 0 37 34" fill="none" xmlns="http://www.w3.org/2000/svg">
<path d="M18.4289 10.6663V18.9997H27.3574M34.5074 6.61801L29.0342 2.33301M7.82885 2.33301L2.35742 6.61801M18.4289 32.333C14.64 32.333 11.0064 30.9282 8.32733 28.4278C5.64823 25.9273 4.14314 22.5359 4.14314 18.9997C4.14314 15.4635 5.64823 12.0721 8.32733 9.57158C11.0064 7.0711 14.64 5.66634 18.4289 5.66634C22.2177 5.66634 25.8513 7.0711 28.5304 9.57158C31.2095 12.0721 32.7146 15.4635 32.7146 18.9997C32.7146 22.5359 31.2095 25.9273 28.5304 28.4278C25.8513 30.9282 22.2177 32.333 18.4289 32.333Z" stroke="white" stroke-width="3.33333" stroke-linecap="round" stroke-linejoin="round"/>
</svg>
