<svg width="60" height="60" viewBox="0 0 60 60" fill="none" xmlns="http://www.w3.org/2000/svg">
<circle cx="30" cy="30" r="28.5" stroke="#000324" stroke-width="3"/>
<g clip-path="url(#clip0_92_209)">
<path d="M46.6667 29.9999C46.6667 20.7999 39.2 13.3333 30 13.3333C20.8 13.3333 13.3334 20.7999 13.3334 29.9999C13.3334 38.0666 19.0667 44.7833 26.6667 46.3332V34.9999H23.3334V29.9999H26.6667V25.8333C26.6667 22.6166 29.2834 19.9999 32.5 19.9999H36.6667V24.9999H33.3334C32.4167 24.9999 31.6667 25.7499 31.6667 26.6666V29.9999H36.6667V34.9999H31.6667V46.5833C40.0834 45.7499 46.6667 38.6499 46.6667 29.9999Z" fill="#000324"/>
</g>
<defs>
<clipPath id="clip0_92_209">
<rect width="40" height="40" fill="white" transform="translate(10 10)"/>
</clipPath>
</defs>
</svg>
