<svg width="60" height="60" viewBox="0 0 60 60" fill="none" xmlns="http://www.w3.org/2000/svg">
<circle cx="30" cy="30" r="28.5" stroke="#000324" stroke-width="3"/>
<path d="M30.9083 26.0649V32.4333H39.9833C38.7966 36.2916 35.5716 39.0533 30.9083 39.0533C25.3549 39.0533 20.8533 34.5516 20.8533 28.9999C20.8533 23.4483 25.3549 18.9466 30.9083 18.9466C33.4049 18.9466 35.6849 19.8616 37.4433 21.3683L42.1333 16.6783C39.1716 13.9799 35.2316 12.3333 30.9083 12.3333C21.7016 12.3333 14.2383 19.7949 14.2383 28.9999C14.2383 38.2049 21.7016 45.6666 30.9083 45.6666C44.9016 45.6666 47.99 32.5833 46.6183 26.0866L30.9083 26.0649Z" fill="#000324"/>
</svg>
