<svg width="24" height="24" viewBox="0 0 24 24" fill="none" xmlns="http://www.w3.org/2000/svg">
<path d="M22 18.2504V11.3154C22 10.6479 22 10.3141 21.9187 10.0029C21.8468 9.72776 21.7285 9.46692 21.5688 9.23164C21.3875 8.96539 21.1375 8.74414 20.6337 8.30539L14.6338 3.05539C13.7013 2.23914 13.2338 1.83039 12.7088 1.67539C12.2463 1.53789 11.7538 1.53789 11.29 1.67539C10.765 1.83039 10.3 2.23789 9.3675 3.05289L3.36625 8.30539C2.86375 8.74539 2.6125 8.96539 2.4325 9.23039C2.27225 9.46599 2.15346 9.72726 2.08125 10.0029C2 10.3129 2 10.6479 2 11.3154V18.2504C2 19.4154 2 19.9979 2.19 20.4566C2.3155 20.76 2.49953 21.0358 2.7316 21.268C2.96366 21.5003 3.23921 21.6846 3.5425 21.8104C4.0025 22.0004 4.585 22.0004 5.75 22.0004C6.915 22.0004 7.4975 22.0004 7.9575 21.8104C8.26079 21.6846 8.53634 21.5003 8.7684 21.268C9.00047 21.0358 9.1845 20.76 9.31 20.4566C9.5 19.9979 9.5 19.4154 9.5 18.2504V17.0004C9.5 16.3373 9.76339 15.7015 10.2322 15.2326C10.7011 14.7638 11.337 14.5004 12 14.5004C12.663 14.5004 13.2989 14.7638 13.7678 15.2326C14.2366 15.7015 14.5 16.3373 14.5 17.0004V18.2504C14.5 19.4154 14.5 19.9979 14.69 20.4566C14.8155 20.76 14.9995 21.0358 15.2316 21.268C15.4637 21.5003 15.7392 21.6846 16.0425 21.8104C16.5025 22.0004 17.085 22.0004 18.25 22.0004C19.415 22.0004 19.9975 22.0004 20.4575 21.8104C20.7608 21.6846 21.0363 21.5003 21.2684 21.268C21.5005 21.0358 21.6845 20.76 21.81 20.4566C22 19.9979 22 19.4154 22 18.2504Z" stroke="currentColor" stroke-width="2.5" stroke-linecap="round" stroke-linejoin="round"/>
</svg>
