<svg xmlns="http://www.w3.org/2000/svg" xmlns:xlink="http://www.w3.org/1999/xlink" width="500" zoomAndPan="magnify" viewBox="0 0 375 374.999991" height="500" preserveAspectRatio="xMidYMid meet" version="1.0"><defs><clipPath id="398b1312e7"><path d="M 142.917969 165.65625 L 164 165.65625 L 164 209.15625 L 142.917969 209.15625 Z M 142.917969 165.65625 " clip-rule="nonzero"/></clipPath><clipPath id="6656b58a6e"><path d="M 166 165.65625 L 187.167969 165.65625 L 187.167969 209.15625 L 166 209.15625 Z M 166 165.65625 " clip-rule="nonzero"/></clipPath></defs><g clip-path="url(#398b1312e7)"><path fill="#d1212e" d="M 163.988281 204.058594 L 163.988281 168.75 L 162.683594 167.296875 L 162.40625 166.988281 L 161.238281 165.679688 L 154.917969 165.679688 L 153.75 166.988281 L 151.683594 169.296875 L 150.378906 170.753906 L 150.378906 172.714844 L 149.957031 173.183594 L 147.28125 176.171875 L 145.976562 177.632812 L 145.976562 181.703125 L 144.222656 183.660156 L 142.917969 185.113281 L 142.917969 190.6875 L 144.222656 192.140625 L 146.984375 195.222656 L 146.984375 198.550781 L 148.289062 200.007812 L 150.816406 202.832031 L 151.820312 203.949219 L 151.820312 205.902344 L 153.125 207.359375 L 153.535156 207.820312 L 154.703125 209.128906 L 161.199219 209.128906 L 162.375 207.820312 L 162.683594 207.476562 L 163.988281 206.023438 Z M 153.121094 203.445312 L 155.207031 201.109375 L 156.511719 199.65625 L 156.511719 191.40625 L 158.941406 188.695312 L 157.96875 187.820312 L 156.511719 189.449219 L 155.207031 190.910156 L 155.207031 199.152344 L 152.246094 202.464844 L 151.816406 201.988281 L 148.285156 198.046875 L 148.285156 194.722656 L 151.839844 190.757812 L 150.871094 189.882812 L 147.410156 193.746094 L 146.980469 193.265625 L 144.222656 190.183594 L 144.222656 185.613281 L 145.976562 183.660156 L 146.851562 182.675781 L 148.011719 183.972656 L 149.179688 185.28125 L 155.632812 185.28125 L 155.632812 183.972656 L 149.765625 183.972656 L 147.28125 181.199219 L 147.28125 178.132812 L 150.378906 174.671875 L 151.257812 173.6875 L 153.527344 176.230469 L 153.527344 180.726562 L 154.832031 180.726562 L 154.832031 175.730469 L 153.527344 174.273438 L 151.683594 172.214844 L 151.683594 171.253906 L 155.5 166.988281 L 160.652344 166.988281 L 162.683594 169.253906 L 162.683594 176.359375 L 159.613281 172.929688 L 158.640625 173.804688 L 162.683594 178.3125 L 162.683594 196.464844 L 160.214844 193.707031 L 159.242188 194.582031 L 162.683594 198.421875 L 162.683594 205.519531 L 160.621094 207.820312 L 155.285156 207.820312 L 153.183594 205.46875 L 153.121094 205.402344 Z M 153.121094 203.445312 " fill-opacity="1" fill-rule="evenodd"/></g><g clip-path="url(#6656b58a6e)"><path fill="#006bed" d="M 166.105469 204.058594 L 166.105469 168.75 L 167.40625 167.296875 L 167.679688 166.988281 L 168.851562 165.679688 L 175.167969 165.679688 L 176.335938 166.988281 L 178.40625 169.296875 L 179.710938 170.753906 L 179.710938 172.714844 L 180.136719 173.183594 L 182.808594 176.171875 L 184.113281 177.632812 L 184.113281 181.703125 L 185.867188 183.660156 L 187.167969 185.113281 L 187.167969 190.6875 L 185.863281 192.140625 L 183.105469 195.222656 L 183.105469 198.550781 L 181.800781 200.007812 L 179.269531 202.832031 L 178.269531 203.949219 L 178.269531 205.902344 L 176.964844 207.359375 L 176.554688 207.820312 L 175.386719 209.128906 L 168.890625 209.128906 L 167.714844 207.820312 L 167.40625 207.476562 L 166.105469 206.023438 Z M 176.96875 203.445312 L 174.882812 201.109375 L 173.578125 199.65625 L 173.578125 191.40625 L 171.148438 188.695312 L 172.121094 187.820312 L 173.578125 189.449219 L 174.882812 190.910156 L 174.882812 199.152344 L 177.84375 202.464844 L 178.269531 201.988281 L 181.800781 198.046875 L 181.800781 194.722656 L 178.25 190.757812 L 179.222656 189.882812 L 182.679688 193.746094 L 183.105469 193.265625 L 185.867188 190.183594 L 185.867188 185.613281 L 184.113281 183.660156 L 183.242188 182.675781 L 182.078125 183.972656 L 180.90625 185.28125 L 174.453125 185.28125 L 174.453125 183.972656 L 180.324219 183.972656 L 182.808594 181.199219 L 182.808594 178.132812 L 179.710938 174.671875 L 178.835938 173.6875 L 176.5625 176.230469 L 176.5625 180.726562 L 175.257812 180.726562 L 175.257812 175.730469 L 176.5625 174.273438 L 178.40625 172.210938 L 178.40625 171.253906 L 174.589844 166.988281 L 169.433594 166.988281 L 167.40625 169.253906 L 167.40625 176.359375 L 170.472656 172.929688 L 171.445312 173.804688 L 167.40625 178.3125 L 167.40625 196.464844 L 169.871094 193.707031 L 170.84375 194.582031 L 167.40625 198.421875 L 167.40625 205.519531 L 169.46875 207.820312 L 174.800781 207.820312 L 176.90625 205.46875 L 176.96875 205.402344 Z M 176.96875 203.445312 " fill-opacity="1" fill-rule="evenodd"/></g></svg>
