<svg xmlns="http://www.w3.org/2000/svg" xmlns:xlink="http://www.w3.org/1999/xlink" width="500" zoomAndPan="magnify" viewBox="0 0 375 374.999991" height="500" preserveAspectRatio="xMidYMid meet" version="1.0"><defs><clipPath id="8f333653c6"><path d="M 133 99.9375 L 185 99.9375 L 185 206.4375 L 133 206.4375 Z M 133 99.9375 " clip-rule="nonzero"/></clipPath><clipPath id="7192571485"><path d="M 189 99.9375 L 241.75 99.9375 L 241.75 206.4375 L 189 206.4375 Z M 189 99.9375 " clip-rule="nonzero"/></clipPath></defs><g clip-path="url(#8f333653c6)"><path fill="#d1212e" d="M 184.78125 193.964844 L 184.78125 107.515625 L 181.574219 103.953125 L 180.898438 103.195312 L 178.023438 99.992188 L 162.496094 99.992188 L 159.625 103.195312 L 154.539062 108.855469 L 151.335938 112.414062 L 151.335938 117.21875 L 150.300781 118.363281 L 143.722656 125.683594 L 140.515625 129.257812 L 140.515625 139.226562 L 136.207031 144.015625 L 133 147.578125 L 133 161.21875 L 136.207031 164.78125 L 142.992188 172.332031 L 142.992188 180.476562 L 146.199219 184.039062 L 152.414062 190.953125 L 154.875 193.6875 L 154.875 198.476562 L 158.078125 202.039062 L 159.089844 203.171875 L 161.960938 206.375 L 177.929688 206.375 L 180.816406 203.171875 L 181.574219 202.332031 L 184.78125 198.769531 Z M 158.074219 192.457031 L 163.199219 186.742188 L 166.40625 183.179688 L 166.40625 162.984375 L 172.375 156.34375 L 169.984375 154.203125 L 166.40625 158.191406 L 163.199219 161.769531 L 163.199219 181.949219 L 155.917969 190.054688 L 154.871094 188.894531 L 146.191406 179.242188 L 146.191406 171.097656 L 154.921875 161.394531 L 152.546875 159.253906 L 144.039062 168.710938 L 142.988281 167.535156 L 136.203125 159.984375 L 136.203125 148.804688 L 140.515625 144.011719 L 142.667969 141.609375 L 145.515625 144.785156 L 148.386719 147.992188 L 164.246094 147.992188 L 164.246094 144.785156 L 149.828125 144.785156 L 143.722656 137.996094 L 143.722656 130.484375 L 151.335938 122.007812 L 153.492188 119.605469 L 159.070312 125.832031 L 159.070312 136.832031 L 162.277344 136.832031 L 162.277344 124.601562 L 159.070312 121.039062 L 154.539062 115.992188 L 154.539062 113.644531 L 163.917969 103.195312 L 176.585938 103.195312 L 181.574219 108.742188 L 181.574219 126.136719 L 174.03125 117.746094 L 171.640625 119.886719 L 181.574219 130.929688 L 181.574219 175.367188 L 175.511719 168.617188 L 173.121094 170.757812 L 181.574219 180.15625 L 181.574219 197.539062 L 176.503906 203.171875 L 163.394531 203.171875 L 158.226562 197.414062 L 158.074219 197.246094 Z M 158.074219 192.457031 " fill-opacity="1" fill-rule="evenodd"/></g><g clip-path="url(#7192571485)"><path fill="#006bed" d="M 189.988281 193.964844 L 189.988281 107.515625 L 193.175781 103.953125 L 193.855469 103.195312 L 196.730469 99.992188 L 212.257812 99.992188 L 215.132812 103.195312 L 220.214844 108.855469 L 223.421875 112.417969 L 223.421875 117.21875 L 224.472656 118.367188 L 231.035156 125.683594 L 234.238281 129.257812 L 234.238281 139.226562 L 238.550781 144.015625 L 241.75 147.578125 L 241.75 161.21875 L 238.546875 164.78125 L 231.761719 172.332031 L 231.761719 180.476562 L 228.554688 184.039062 L 222.339844 190.953125 L 219.878906 193.6875 L 219.878906 198.476562 L 216.675781 202.039062 L 215.664062 203.171875 L 212.792969 206.375 L 196.828125 206.375 L 193.941406 203.171875 L 193.183594 202.332031 L 189.988281 198.765625 Z M 216.679688 192.457031 L 211.554688 186.742188 L 208.347656 183.179688 L 208.347656 162.984375 L 202.378906 156.34375 L 204.769531 154.203125 L 208.347656 158.191406 L 211.554688 161.769531 L 211.554688 181.949219 L 218.832031 190.054688 L 219.882812 188.894531 L 228.558594 179.242188 L 228.558594 171.097656 L 219.828125 161.394531 L 222.21875 159.253906 L 230.714844 168.710938 L 231.765625 167.535156 L 238.550781 159.984375 L 238.550781 148.804688 L 234.238281 144.011719 L 232.097656 141.609375 L 229.238281 144.785156 L 226.363281 147.992188 L 210.503906 147.992188 L 210.503906 144.785156 L 224.925781 144.785156 L 231.03125 137.996094 L 231.03125 130.484375 L 223.417969 122.007812 L 221.277344 119.605469 L 215.683594 125.832031 L 215.683594 136.832031 L 212.476562 136.832031 L 212.476562 124.601562 L 215.683594 121.039062 L 220.210938 115.984375 L 220.210938 113.644531 L 210.832031 103.195312 L 198.164062 103.195312 L 193.175781 108.742188 L 193.175781 126.136719 L 200.71875 117.746094 L 203.109375 119.886719 L 193.175781 130.929688 L 193.175781 175.367188 L 199.242188 168.617188 L 201.632812 170.757812 L 193.175781 180.15625 L 193.175781 197.539062 L 198.246094 203.171875 L 211.359375 203.171875 L 216.527344 197.414062 L 216.679688 197.246094 Z M 216.679688 192.457031 " fill-opacity="1" fill-rule="evenodd"/></g></svg>