<svg xmlns="http://www.w3.org/2000/svg" xmlns:xlink="http://www.w3.org/1999/xlink" width="500" zoomAndPan="magnify" viewBox="0 0 375 374.999991" height="500" preserveAspectRatio="xMidYMid meet" version="1.0"><defs><clipPath id="52bdb012dc"><path d="M 3.332031 7.015625 L 179 7.015625 L 179 367.765625 L 3.332031 367.765625 Z M 3.332031 7.015625 " clip-rule="nonzero"/></clipPath><clipPath id="78dc4927a3"><path d="M 196 7.015625 L 371.582031 7.015625 L 371.582031 367.765625 L 196 367.765625 Z M 196 7.015625 " clip-rule="nonzero"/></clipPath></defs><g clip-path="url(#52bdb012dc)"><path fill="#d1212e" d="M 178.660156 325.515625 L 178.660156 32.683594 L 167.804688 20.617188 L 165.515625 18.046875 L 155.785156 7.195312 L 103.199219 7.195312 L 93.476562 18.046875 L 76.257812 37.21875 L 65.410156 49.277344 L 65.410156 65.550781 L 61.90625 69.429688 L 39.632812 94.21875 L 28.777344 106.328125 L 28.777344 140.09375 L 14.179688 156.320312 L 3.332031 168.386719 L 3.332031 214.59375 L 14.1875 226.660156 L 37.15625 252.238281 L 37.15625 279.824219 L 48.015625 291.890625 L 69.0625 315.316406 L 77.394531 324.578125 L 77.394531 340.804688 L 88.25 352.871094 L 91.667969 356.707031 L 101.394531 367.558594 L 155.46875 367.558594 L 165.242188 356.707031 L 167.8125 353.859375 L 178.667969 341.792969 L 178.667969 325.515625 Z M 88.234375 320.410156 L 105.585938 301.046875 L 116.441406 288.980469 L 116.441406 220.570312 L 136.652344 198.078125 L 128.558594 190.828125 L 116.441406 204.34375 L 105.585938 216.457031 L 105.585938 284.820312 L 80.9375 312.269531 L 77.378906 308.335938 L 48 275.648438 L 48 248.0625 L 77.5625 215.1875 L 69.519531 207.9375 L 40.699219 239.972656 L 37.144531 235.996094 L 14.171875 210.417969 L 14.171875 172.539062 L 28.769531 156.3125 L 36.066406 148.175781 L 45.703125 158.933594 L 55.429688 169.785156 L 109.136719 169.785156 L 109.136719 158.933594 L 60.304688 158.933594 L 39.632812 135.925781 L 39.632812 110.480469 L 65.410156 81.769531 L 72.707031 73.632812 L 91.609375 94.726562 L 91.609375 131.996094 L 102.464844 131.996094 L 102.464844 90.558594 L 91.609375 78.492188 L 76.257812 61.398438 L 76.257812 53.445312 L 108.023438 18.046875 L 150.917969 18.046875 L 167.804688 36.84375 L 167.804688 95.765625 L 142.265625 67.332031 L 134.167969 74.582031 L 167.804688 111.992188 L 167.804688 262.523438 L 147.273438 239.652344 L 139.179688 246.90625 L 167.804688 278.75 L 167.804688 337.625 L 150.636719 356.699219 L 106.242188 356.699219 L 88.742188 337.199219 L 88.226562 336.636719 L 88.226562 320.410156 Z M 88.234375 320.410156 " fill-opacity="1" fill-rule="evenodd"/></g><g clip-path="url(#78dc4927a3)"><path fill="#006bed" d="M 196.292969 325.515625 L 196.292969 32.683594 L 207.097656 20.617188 L 209.386719 18.046875 L 219.125 7.195312 L 271.710938 7.195312 L 281.441406 18.046875 L 298.652344 37.21875 L 309.507812 49.285156 L 309.507812 65.558594 L 313.066406 69.4375 L 335.285156 94.21875 L 346.140625 106.328125 L 346.140625 140.09375 L 360.738281 156.320312 L 371.582031 168.386719 L 371.582031 214.59375 L 360.726562 226.660156 L 337.753906 252.238281 L 337.753906 279.824219 L 326.898438 291.890625 L 305.847656 315.316406 L 297.519531 324.578125 L 297.519531 340.804688 L 286.664062 352.871094 L 283.246094 356.707031 L 273.515625 367.558594 L 219.457031 367.558594 L 209.683594 356.707031 L 207.113281 353.859375 L 196.292969 341.785156 Z M 286.675781 320.410156 L 269.324219 301.046875 L 258.46875 288.980469 L 258.46875 220.570312 L 238.257812 198.078125 L 246.355469 190.828125 L 258.46875 204.34375 L 269.324219 216.457031 L 269.324219 284.820312 L 293.976562 312.269531 L 297.53125 308.335938 L 326.910156 275.648438 L 326.910156 248.0625 L 297.347656 215.1875 L 305.441406 207.9375 L 334.210938 239.972656 L 337.769531 235.996094 L 360.738281 210.417969 L 360.738281 172.539062 L 346.140625 156.3125 L 338.886719 148.175781 L 329.203125 158.933594 L 319.472656 169.785156 L 265.769531 169.785156 L 265.769531 158.933594 L 314.605469 158.933594 L 335.277344 135.925781 L 335.277344 110.480469 L 309.5 81.769531 L 302.246094 73.632812 L 283.304688 94.726562 L 283.304688 131.996094 L 272.449219 131.996094 L 272.449219 90.558594 L 283.304688 78.492188 L 298.644531 61.375 L 298.644531 53.445312 L 266.878906 18.046875 L 223.984375 18.046875 L 207.097656 36.84375 L 207.097656 95.765625 L 232.640625 67.332031 L 240.734375 74.582031 L 207.097656 111.992188 L 207.097656 262.523438 L 227.632812 239.652344 L 235.726562 246.90625 L 207.097656 278.75 L 207.097656 337.625 L 224.265625 356.699219 L 268.660156 356.699219 L 286.160156 337.199219 L 286.675781 336.636719 Z M 286.675781 320.410156 " fill-opacity="1" fill-rule="evenodd"/></g></svg>