<svg width="25" height="27" viewBox="0 0 25 27" fill="none" xmlns="http://www.w3.org/2000/svg">
<path d="M15.75 20.2499V21.4999C15.75 22.4944 15.3549 23.4482 14.6517 24.1515C13.9484 24.8548 12.9946 25.2499 12 25.2499C11.0054 25.2499 10.0516 24.8548 9.34835 24.1515C8.64509 23.4482 8.25 22.4944 8.25 21.4999V20.2499M15.75 20.2499H8.25M15.75 20.2499H20.75C21.0815 20.2499 21.3995 20.1182 21.6339 19.8837C21.8683 19.6493 22 19.3314 22 18.9999V18.2674C21.9999 17.9359 21.8682 17.618 21.6338 17.3836L20.9963 16.7461C20.9181 16.6682 20.8562 16.5757 20.8139 16.4738C20.7716 16.3719 20.7499 16.2627 20.75 16.1524V11.4999C20.75 11.2799 20.7425 11.0611 20.725 10.8449M8.25 20.2499H3.25C2.91848 20.2499 2.60054 20.1182 2.36612 19.8837C2.1317 19.6493 2 19.3314 2 18.9999V18.2674C2.00007 17.9359 2.13181 17.618 2.36625 17.3836L3.00375 16.7449C3.08178 16.6672 3.1437 16.5748 3.18596 16.4732C3.22822 16.3715 3.24998 16.2625 3.25 16.1524V11.4999C3.24973 10.1319 3.57018 8.78303 4.18562 7.56139C4.80106 6.33975 5.69434 5.27942 6.79377 4.46552C7.89319 3.65162 9.16812 3.10682 10.5162 2.87486C11.8643 2.64289 13.248 2.73023 14.5563 3.12986M20.725 10.8449C21.3522 10.4868 21.8944 9.99722 22.3143 9.40965C22.7343 8.82208 23.0219 8.15051 23.1575 7.44116C23.2931 6.7318 23.2734 6.0015 23.0998 5.30048C22.9262 4.59946 22.6028 3.94437 22.1518 3.38028C21.7008 2.81619 21.133 2.35648 20.4874 2.03279C19.8418 1.7091 19.1338 1.5291 18.412 1.50518C17.6902 1.48127 16.9718 1.614 16.3062 1.89425C15.6406 2.17449 15.0436 2.59685 14.5563 3.12986M20.725 10.8449C19.6901 11.4356 18.4782 11.6373 17.3077 11.4135C16.1372 11.1898 15.0851 10.5554 14.341 9.6246C13.5969 8.69382 13.2097 7.52787 13.2491 6.33686C13.2886 5.14585 13.7522 4.00934 14.5563 3.12986M14.5563 3.12986H14.5587" stroke="white" stroke-width="2.5" stroke-linecap="round" stroke-linejoin="round"/>
</svg>
