<svg width="24" height="26" viewBox="0 0 24 26" fill="none" xmlns="http://www.w3.org/2000/svg">
<path d="M22 24.5C22 21.0488 17.5225 18.25 12 18.25C6.4775 18.25 2 21.0488 2 24.5M12 14.5C10.3424 14.5 8.75269 13.8415 7.58058 12.6694C6.40848 11.4973 5.75 9.9076 5.75 8.25C5.75 6.5924 6.40848 5.00269 7.58058 3.83058C8.75269 2.65848 10.3424 2 12 2C13.6576 2 15.2473 2.65848 16.4194 3.83058C17.5915 5.00269 18.25 6.5924 18.25 8.25C18.25 9.9076 17.5915 11.4973 16.4194 12.6694C15.2473 13.8415 13.6576 14.5 12 14.5Z" stroke="currentColor" stroke-width="2.5" stroke-linecap="round" stroke-linejoin="round"/>
</svg>
