<svg width="26" height="26" viewBox="0 0 26 26" fill="none" xmlns="http://www.w3.org/2000/svg">
<path d="M13 1.75C10.775 1.75 8.59989 2.4098 6.74984 3.64597C4.89979 4.88213 3.45785 6.63914 2.60636 8.69481C1.75487 10.7505 1.53209 13.0125 1.96617 15.1948C2.40025 17.3771 3.47171 19.3816 5.04505 20.955C6.61839 22.5283 8.62295 23.5998 10.8052 24.0338C12.9875 24.4679 15.2495 24.2451 17.3052 23.3936C19.3609 22.5422 21.1179 21.1002 22.354 19.2502C23.5902 17.4001 24.25 15.225 24.25 13M13 1.75C15.9837 1.75 18.8452 2.93526 20.955 5.04505C23.0647 7.15483 24.25 10.0163 24.25 13M13 1.75V13M24.25 13H13M13 13L20.5 21.125" stroke="currentColor" stroke-width="2.5" stroke-linecap="round" stroke-linejoin="round"/>
</svg>
