<svg width="26" height="26" viewBox="0 0 26 26" fill="none" xmlns="http://www.w3.org/2000/svg">
<path d="M16.75 16.75L24.25 24.25M10.5 19.25C9.35094 19.25 8.21312 19.0237 7.15152 18.5839C6.08992 18.1442 5.12533 17.4997 4.31282 16.6872C3.5003 15.8747 2.85578 14.9101 2.41605 13.8485C1.97633 12.7869 1.75 11.6491 1.75 10.5C1.75 9.35093 1.97633 8.21312 2.41605 7.15152C2.85578 6.08992 3.5003 5.12533 4.31282 4.31282C5.12533 3.5003 6.08992 2.85578 7.15152 2.41605C8.21312 1.97633 9.35094 1.75 10.5 1.75C12.8206 1.75 15.0462 2.67187 16.6872 4.31282C18.3281 5.95376 19.25 8.17936 19.25 10.5C19.25 12.8206 18.3281 15.0462 16.6872 16.6872C15.0462 18.3281 12.8206 19.25 10.5 19.25Z" stroke="currentColor" stroke-width="2.5" stroke-linecap="round" stroke-linejoin="round"/>
</svg>
