<svg width="30" height="30" viewBox="0 0 30 30" fill="none" xmlns="http://www.w3.org/2000/svg">
<path d="M25.4376 11.1537L24.9801 10.8987C24.5775 10.6914 24.2388 10.3786 24.0001 9.99375C23.9789 9.96 23.9589 9.92375 23.9189 9.85375C23.6495 9.4211 23.5187 8.91652 23.5438 8.4075L23.5513 7.87625C23.5663 7.02625 23.5739 6.59875 23.4539 6.21625C23.3478 5.87589 23.17 5.5622 22.9326 5.29625C22.6651 4.99625 22.2938 4.78125 21.5501 4.35375L20.9326 3.9975C20.1926 3.57125 19.8213 3.3575 19.4276 3.27625C19.0797 3.20422 18.7205 3.20721 18.3739 3.285C17.9826 3.3725 17.6164 3.5925 16.8851 4.03L16.8814 4.0325L16.4389 4.29625C16.3689 4.33875 16.3326 4.35875 16.2976 4.37875C15.9501 4.5725 15.5626 4.67875 15.1638 4.69125C15.1238 4.69375 15.0826 4.69375 15.0014 4.69375L14.8389 4.6925C14.44 4.67994 14.0499 4.57192 13.7014 4.3775C13.6664 4.35875 13.6326 4.3375 13.5626 4.295L13.1164 4.0275C12.3801 3.585 12.0113 3.365 11.6176 3.27625C11.2697 3.19829 10.9091 3.19573 10.5601 3.26875C10.1651 3.35125 9.7951 3.56625 9.05385 3.99625L9.0501 3.9975L8.4401 4.35125L8.43385 4.35625C7.69885 4.78125 7.3301 4.99625 7.0651 5.295C6.82895 5.56049 6.6521 5.87327 6.54635 6.2125C6.4276 6.59625 6.43385 7.02375 6.44885 7.87875L6.4576 8.40875C6.4576 8.49 6.46135 8.53 6.4601 8.56875C6.4535 9.02288 6.32344 9.46665 6.08385 9.8525C6.0426 9.9225 6.02385 9.9575 6.0026 9.99C5.79184 10.3302 5.50248 10.6149 5.15885 10.82L5.01885 10.8987L4.5676 11.1487C3.8151 11.565 3.43885 11.7737 3.16635 12.0712C2.92407 12.3335 2.7408 12.6447 2.62885 12.9837C2.50385 13.3675 2.50385 13.7962 2.5051 14.6562L2.5076 15.36C2.50885 16.2137 2.51135 16.64 2.6376 17.0212C2.74908 17.3582 2.93103 17.6676 3.17135 17.9287C3.44385 18.2237 3.81635 18.4312 4.5626 18.8462L5.0101 19.095C5.08635 19.1375 5.1251 19.1575 5.16135 19.18C5.55307 19.4148 5.87298 19.7524 6.08635 20.1562L6.1701 20.3062C6.38124 20.7049 6.48058 21.1532 6.4576 21.6037L6.44885 22.1125C6.43385 22.97 6.4276 23.4 6.5476 23.7837C6.65385 24.1237 6.83135 24.4375 7.06885 24.7037C7.33635 25.0037 7.70885 25.2175 8.45135 25.6462L9.06885 26.0025C9.8101 26.4287 10.1801 26.6425 10.5738 26.7237C10.9217 26.7957 11.281 26.7927 11.6276 26.715C12.0201 26.6275 12.3864 26.4075 13.1201 25.9675L13.5626 25.7025C13.9437 25.4571 14.3845 25.3201 14.8376 25.3062H15.1626C15.5601 25.3187 15.9501 25.4275 16.3001 25.6212L16.4151 25.69L16.8851 25.9725C17.6226 26.415 17.9901 26.635 18.3838 26.7225C18.7316 26.8012 19.0922 26.8046 19.4414 26.7325C19.8351 26.65 20.2076 26.4337 20.9489 26.0037L21.5676 25.645C22.3026 25.2175 22.6714 25.0037 22.9364 24.705C23.1739 24.4387 23.3489 24.1262 23.4551 23.7875C23.5739 23.4062 23.5676 22.9825 23.5526 22.14L23.5426 21.59C23.5178 21.0818 23.6486 20.5781 23.9176 20.1462L23.9988 20.0087C24.2096 19.6685 24.499 19.3839 24.8426 19.1787L24.9801 19.1025L24.9826 19.1012L25.4339 18.8512C26.1864 18.4337 26.5626 18.2262 26.8363 17.9287C27.0788 17.6662 27.2614 17.3537 27.3726 17.0162C27.4976 16.635 27.4976 16.2075 27.4951 15.3575L27.4926 14.64C27.4913 13.7862 27.4901 13.3587 27.3639 12.9775C27.2518 12.6409 27.0694 12.332 26.8288 12.0712C26.5576 11.7762 26.1851 11.5687 25.4401 11.155L25.4376 11.1537Z" stroke="currentColor" stroke-width="2.5" stroke-linecap="round" stroke-linejoin="round"/>
<path d="M10 15C10 16.3261 10.5268 17.5979 11.4645 18.5355C12.4021 19.4732 13.6739 20 15 20C16.3261 20 17.5979 19.4732 18.5355 18.5355C19.4732 17.5979 20 16.3261 20 15C20 13.6739 19.4732 12.4021 18.5355 11.4645C17.5979 10.5268 16.3261 10 15 10C13.6739 10 12.4021 10.5268 11.4645 11.4645C10.5268 12.4021 10 13.6739 10 15Z" stroke="currentColor" stroke-width="2.5" stroke-linecap="round" stroke-linejoin="round"/>
</svg>
