<svg width="60" height="60" viewBox="0 0 60 60" fill="none" xmlns="http://www.w3.org/2000/svg">
<circle cx="30" cy="30" r="28.5" stroke="#000324" stroke-width="3"/>
<path d="M26.755 23.3133L36.14 36.6867H33.645L24.2767 23.3133H26.755ZM45 20V40C45 42.7617 42.7617 45 40 45H20C17.2383 45 15 42.7617 15 40V20C15 17.2383 17.2383 15 20 15H40C42.7617 15 45 17.2383 45 20ZM39.23 38.3333L32.2533 28.35L37.9567 21.6667H35.7717L31.265 26.9333L27.5867 21.6667H21.17L27.7383 31.055L21.51 38.3333H23.7317L28.7333 32.4733L32.83 38.3333H39.23Z" fill="#000324"/>
</svg>
